<?xml version="1.0" encoding="UTF-8"?> <svg xmlns="http://www.w3.org/2000/svg" xmlns:xlink="http://www.w3.org/1999/xlink" version="1.1" id="Layer_1" x="0px" y="0px" viewBox="0 0 222.5 72.4" style="enable-background:new 0 0 222.5 72.4;" xml:space="preserve"> <style type="text/css"> .st0{fill-rule:evenodd;clip-rule:evenodd;fill:#0069A8;} .st1{fill:#0069A8;} .st2{fill-rule:evenodd;clip-rule:evenodd;fill:#33BEE5;} .st3{fill-rule:evenodd;clip-rule:evenodd;fill:#0B8CC8;} .st4{fill-rule:evenodd;clip-rule:evenodd;fill:#1E1917;} .st5{fill:#1E1917;} .st6{fill-rule:evenodd;clip-rule:evenodd;fill:#ACA9A9;} .st7{fill-rule:evenodd;clip-rule:evenodd;fill:#737070;} .st8{fill-rule:evenodd;clip-rule:evenodd;fill:#FFFFFF;} .st9{fill:#FFFFFF;} </style> <g> <g> <path class="st8" d="M167.2,20.7c1.2,0.1,1.4,0.4,1.4,0.9v22.1c0,0.4-0.2,0.8-1.4,0.9v0.6h9.8v-0.6c-1.1-0.1-1.4-0.4-1.4-0.9V21.5 c0-0.4,0.3-0.8,1.4-0.9v-0.6h-9.8V20.7z"></path> <path class="st8" d="M201.7,26.8c0-1.1,0.8-2.3,4.9-2.6c4.4-0.2,7.7,1.1,8.6,1.8l0.8,0.6l1.9-6.3c-0.6,0-0.1-0.1-0.9-0.1 c-1.3,0-5.8-1.5-11.5-1.2c-7.1,0.4-10.3,4-10.3,8.8c0,9.2,17.2,4.9,17.1,9c-0.1,2.1-1.7,3.5-6.4,3.7c-4.9,0.2-7.9-1.2-8.9-2 c-0.5-0.3-1.4-0.9-1.3-1.1l-1,0.3l1.7,6.8c1.9,0.3,6.2,1.3,11.4,1c7-0.3,11.5-4.8,11.5-8.8C219.2,25.8,201.7,31,201.7,26.8"></path> <path class="st8" d="M141.4,20.7c0.6,0.1,1.2,0.3,1.2,0.9v17.1c-6.4-11.1-8.3-14.8-9.3-18v-0.6h-2h-9.5v0.6 c1.3,0.1,1.4,0.4,1.4,0.9v22.1c0,0.4-0.1,0.8-1.4,0.9v0.6h8.6v-0.6c-1.2-0.1-1.4-0.4-1.4-0.9V26.2c0.9,1.3,1.5,2.4,2.3,3.5 c5.9,9.4,7.6,12.8,8.3,14.8v0.6h9.4v-0.6c-0.3-0.1-0.3-0.4-0.3-0.9V21.5c0-0.4,0.2-0.8,1.4-0.9v-0.6h-8.7V20.7z"></path> <path class="st8" d="M95,20.7c1.2,0.1,1.6,0.4,1.6,0.9v13.9c0,3.7-1.6,5.1-5.4,5.1c-3.8,0-6-1.4-6-5.1V21.5c0-0.4,0.7-0.8,1.8-0.9 v-0.6h-9.7v0.6c1.1,0.1,1.3,0.4,1.3,0.9v12.8c0,8.3,5.3,11.1,12.5,11.1c7.3,0,12.3-2.7,12.3-11.1V21.5c0-0.4,0.3-0.8,1.4-0.9v-0.6 H95V20.7z"></path> </g> <path class="st9" d="M217,56.8c0.5,0,0.9,0.2,1.1,0.3V60c-0.2,0.1-0.6,0.3-1.1,0.3c-1,0-1.2-0.8-1.2-1.7 C215.9,57.6,216,56.8,217,56.8 M216.8,55.9c-1.5,0-2,1-2,2.7c0,1.7,0.6,2.7,2,2.7c0.7,0,1.2-0.2,1.7-0.5l0.2,0.4h0.7v-7.7h-1.1v2.8 C217.8,56,217.3,55.9,216.8,55.9z M214.2,55.9c-0.1,0-0.3-0.1-0.5-0.1c-0.7,0-1.2,0.2-1.6,0.5l-0.2-0.4h-0.7v5.1h1.1v-3.9 c0.3-0.2,0.7-0.3,1.3-0.3c0.2,0,0.4,0,0.6,0.1V55.9z M209.1,58.6v1.3c-0.3,0.2-0.6,0.3-1.1,0.3c-0.6,0-0.8-0.4-0.8-0.8 c0-0.5,0.3-0.7,0.8-0.8L209.1,58.6z M209.1,57.6v0.3l-1.1,0.1c-1.2,0.1-1.9,0.6-1.9,1.7c0,0.8,0.4,1.6,1.8,1.6 c0.6,0,1.1-0.2,1.5-0.5l0.2,0.4h0.7v-3.4c0-1.1-0.4-1.8-2.1-1.8c-0.6,0-1.3,0.1-1.7,0.3v1c0.4-0.2,0.9-0.3,1.6-0.3 C208.8,56.9,209.1,57.1,209.1,57.6z M203.1,56.8c1,0,1.2,0.8,1.2,1.7c0,1-0.2,1.7-1.2,1.7c-0.5,0-0.9-0.2-1.1-0.3v-2.8 C202.2,57,202.5,56.8,203.1,56.8z M203.3,55.9c-0.5,0-1,0.2-1.4,0.4v-2.8h-1.1v7.7h0.7l0.2-0.4c0.4,0.3,1,0.5,1.7,0.5 c1.5,0,2-1,2-2.7C205.4,56.9,204.8,55.9,203.3,55.9z M199.7,61.2c0.1,0,0.2,0,0.2,0v-0.9c-0.3,0-0.4-0.1-0.4-0.4v-6.4h-1.1v6.4 C198.4,60.7,198.8,61.2,199.7,61.2z M196.2,58.6v1.3c-0.3,0.2-0.6,0.3-1.1,0.3c-0.6,0-0.8-0.4-0.8-0.8c0-0.5,0.3-0.7,0.8-0.8 L196.2,58.6z M196.2,57.6v0.3l-1.1,0.1c-1.2,0.1-1.9,0.6-1.9,1.7c0,0.8,0.4,1.6,1.8,1.6c0.6,0,1.1-0.2,1.5-0.5l0.2,0.4h0.7v-3.4 c0-1.1-0.4-1.8-2.1-1.8c-0.6,0-1.3,0.1-1.7,0.3v1c0.4-0.2,0.9-0.3,1.6-0.3C195.9,56.9,196.2,57.1,196.2,57.6z M188.1,56l2,5.2h0.9 l2-5.2h-1.2l-1.2,3.7l-1.2-3.7H188.1z M185.1,56.6c-1-0.1-1.5-0.3-1.5-1.1c0-0.7,0.4-1.1,1.6-1.1c0.8,0,1.5,0.2,2,0.4v-1.1 c-0.4-0.2-1.1-0.4-2.1-0.4c-2.1,0-2.7,1.1-2.7,2.2c0,1.4,0.7,1.9,2.6,2.1c1,0.1,1.4,0.3,1.4,1.2c0,0.7-0.4,1.3-1.8,1.3 c-1,0-1.8-0.3-2.2-0.5v1.1c0.5,0.3,1.5,0.4,2.3,0.4c2.1,0,2.9-1,2.9-2.4C187.6,57.2,186.7,56.9,185.1,56.6z M179.6,61.1v-3.6 c0-1-0.5-1.6-1.8-1.6c-0.6,0-1.1,0.2-1.7,0.5L176,56h-0.7v5.1h1.1v-4c0.3-0.2,0.6-0.3,1.2-0.3c0.5,0,0.8,0.2,0.8,0.8v3.5H179.6z M172.8,54.5c0,0.4,0.3,0.7,0.7,0.7s0.7-0.3,0.7-0.7c0-0.4-0.3-0.7-0.7-0.7S172.8,54.1,172.8,54.5z M174.3,61.2c0.1,0,0.2,0,0.2,0 v-0.9c-0.3,0-0.4-0.1-0.4-0.4V56h-1.1v3.9C172.9,60.7,173.4,61.2,174.3,61.2z M167.9,56.9c0.9,0,0.9,0.6,0.9,1.3h-2 C166.8,57.4,167.1,56.9,167.9,56.9z M165.6,58.5c0,1.7,0.6,2.7,2.3,2.7c0.6,0,1.2-0.1,1.8-0.3v-1c-0.4,0.2-1,0.3-1.6,0.3 c-1,0-1.3-0.5-1.3-1.3h3.2c0-0.2,0-0.3,0-0.5c0-1.4-0.3-2.6-2.1-2.6C166.2,55.9,165.6,56.9,165.6,58.5z M165.2,55.9 c-0.1,0-0.3-0.1-0.5-0.1c-0.7,0-1.2,0.2-1.6,0.5l-0.2-0.4h-0.7v5.1h1.1v-3.9c0.3-0.2,0.7-0.3,1.3-0.3c0.2,0,0.4,0,0.6,0.1V55.9z M161.3,60.2c-0.1,0-0.3,0-0.4,0c-0.6,0-0.8-0.2-0.8-0.8V57h1.4v-1H160v-1.5l-1.1,0.3V56l-0.9,0.3V57h0.9v2.7 c0,1.1,0.7,1.6,1.8,1.6c0.2,0,0.5,0,0.6-0.1V60.2z M157.4,61.1v-3.6c0-1-0.5-1.6-1.8-1.6c-0.6,0-1.1,0.2-1.7,0.5l-0.2-0.4h-0.7v5.1 h1.1v-4c0.3-0.2,0.6-0.3,1.2-0.3c0.5,0,0.8,0.2,0.8,0.8v3.5H157.4z M150.1,56.9c0.9,0,0.9,0.6,0.9,1.3h-2 C149.1,57.4,149.3,56.9,150.1,56.9z M147.9,58.5c0,1.7,0.6,2.7,2.3,2.7c0.6,0,1.2-0.1,1.8-0.3v-1c-0.4,0.2-1,0.3-1.6,0.3 c-1,0-1.3-0.5-1.3-1.3h3.2c0-0.2,0-0.3,0-0.5c0-1.4-0.3-2.6-2.1-2.6C148.5,55.9,147.9,56.9,147.9,58.5z M142.1,57.3 c0,2.5,0.9,4,3.2,4c0.9,0,1.4-0.2,1.8-0.3v-1.1c-0.6,0.2-1,0.3-1.7,0.3c-1.5,0-2.1-1-2.1-2.9c0-1.9,0.6-2.9,2.1-2.9 c0.7,0,1.1,0.1,1.7,0.3v-1.1c-0.4-0.2-0.9-0.3-1.8-0.3C143,53.3,142.1,54.8,142.1,57.3z M134.7,56l1.9,4.9l-1.3,2.7h1.3l2.9-7.7 h-1.3l-1.2,3.6L136,56H134.7z M134.3,60.2c-0.1,0-0.3,0-0.4,0c-0.6,0-0.8-0.2-0.8-0.8V57h1.4v-1H133v-1.5l-1.1,0.3V56l-0.9,0.3V57 h0.9v2.7c0,1.1,0.7,1.6,1.8,1.6c0.2,0,0.5,0,0.6-0.1V60.2z M128.8,54.5c0,0.4,0.3,0.7,0.7,0.7c0.4,0,0.7-0.3,0.7-0.7 c0-0.4-0.3-0.7-0.7-0.7C129.1,53.7,128.8,54.1,128.8,54.5z M130.3,61.2c0.1,0,0.2,0,0.2,0v-0.9c-0.3,0-0.4-0.1-0.4-0.4V56H129v3.9 C129,60.7,129.4,61.2,130.3,61.2z M125.2,57.5c0-0.5,0.4-0.6,1-0.6c0.6,0,1.1,0.1,1.6,0.3v-1c-0.4-0.2-0.9-0.3-1.6-0.3 c-1.5,0-2.1,0.7-2.1,1.6c0,0.9,0.4,1.4,1.9,1.5c0.7,0.1,0.8,0.3,0.8,0.6c0,0.4-0.4,0.6-1.2,0.6c-0.6,0-1.2-0.2-1.5-0.3v1 c0.3,0.1,1,0.3,1.7,0.3c1.6,0,2.2-0.8,2.2-1.6c0-1-0.4-1.4-1.9-1.5C125.4,58,125.2,57.8,125.2,57.5z M123.6,55.9 c-0.1,0-0.3-0.1-0.5-0.1c-0.7,0-1.2,0.2-1.6,0.5l-0.2-0.4h-0.7v5.1h1.1v-3.9c0.3-0.2,0.7-0.3,1.3-0.3c0.2,0,0.4,0,0.6,0.1V55.9z M117.6,56.9c0.9,0,0.9,0.6,0.9,1.3h-2C116.5,57.4,116.8,56.9,117.6,56.9z M115.3,58.5c0,1.7,0.6,2.7,2.3,2.7 c0.6,0,1.2-0.1,1.8-0.3v-1c-0.4,0.2-1,0.3-1.6,0.3c-1,0-1.3-0.5-1.3-1.3h3.2c0-0.2,0-0.3,0-0.5c0-1.4-0.3-2.6-2.1-2.6 C115.9,55.9,115.3,56.9,115.3,58.5z M110.2,56l2,5.2h0.9l2-5.2h-1.2l-1.2,3.7l-1.2-3.7H110.2z M108.1,54.5c0,0.4,0.3,0.7,0.7,0.7 c0.4,0,0.7-0.3,0.7-0.7c0-0.4-0.3-0.7-0.7-0.7C108.4,53.7,108.1,54.1,108.1,54.5z M109.6,61.2c0.1,0,0.2,0,0.2,0v-0.9 c-0.3,0-0.4-0.1-0.4-0.4V56h-1.1v3.9C108.2,60.7,108.7,61.2,109.6,61.2z M107.2,61.1v-3.6c0-1-0.5-1.6-1.8-1.6 c-0.6,0-1.1,0.2-1.7,0.5l-0.2-0.4h-0.7v5.1h1.1v-4c0.3-0.2,0.6-0.3,1.2-0.3c0.5,0,0.8,0.2,0.8,0.8v3.5H107.2z M99.1,61.2 c1,0,2.8-0.4,2.8-2.5v-5.3h-1.1v5.1c0,1.4-1,1.6-1.6,1.6c-0.6,0-1.6-0.2-1.6-1.6v-5.1h-1.1v5.3C96.3,60.8,98,61.2,99.1,61.2z M91.4,56.9c0.9,0,0.9,0.6,0.9,1.3h-2C90.3,57.4,90.5,56.9,91.4,56.9z M89.1,58.5c0,1.7,0.6,2.7,2.3,2.7c0.6,0,1.2-0.1,1.8-0.3v-1 c-0.5,0.2-1,0.3-1.6,0.3c-1,0-1.3-0.5-1.3-1.3h3.2c0-0.2,0-0.3,0-0.5c0-1.4-0.3-2.6-2.1-2.6C89.7,55.9,89.1,56.9,89.1,58.5z M87.1,57.6v3.5h1.1v-3.6c0-1-0.5-1.6-1.8-1.6c-0.5,0-1,0.1-1.4,0.4v-2.8H84v7.7h1.1v-4c0.3-0.2,0.6-0.3,1.2-0.3 C86.8,56.8,87.1,57.1,87.1,57.6z M83.3,54.5v-1.1h-5.1v1.1h2v6.6h1.1v-6.6H83.3z"></path> <path class="st8" d="M42.2,20.5c-0.8-0.9-1.7-1.8-2.5-2.6c-0.3-0.3-0.7-0.6-1-0.9c-0.2-0.2-0.5-0.4-0.7-0.5 c-0.3-0.3-0.7-0.5-0.9-0.8l0.8-1.4c0.1,0,0.1,0,0.1,0c0.2,0.1,0.5,0.1,0.7,0.2c0.4,0.1,0.7,0.2,1,0.4c1.7,0.5,3.2,1.2,4.7,2 c0.5,0.2,0.8,0.5,1.2,0.7c-0.4,0.4-0.8,0.8-1.2,1.2C43.6,19.4,42.9,20,42.2,20.5 M38.6,18.7c0.4,0.3,0.7,0.6,1,0.9 c0.5,0.5,1,1,1.4,1.5c-0.4,0.3-0.9,0.5-1.4,0.8c-0.3,0.2-0.7,0.3-1,0.5c-0.2,0.1-0.5,0.2-0.7,0.2c-0.2,0.1-0.4,0.2-0.7,0.2 c-0.7-2.9-0.6-4.4-0.5-5.7c0.4,0.3,0.8,0.7,1.2,0.9C38.1,18.3,38.4,18.5,38.6,18.7z M23.4,16.9c-0.4,0.4-0.8,0.7-1.2,1 c-0.9,0.8-1.7,1.7-2.5,2.6c-0.8-0.5-1.5-1.1-2.3-1.7c-0.4-0.4-0.8-0.7-1.1-1.1c0.4-0.2,0.7-0.5,1.1-0.7c1.5-0.9,3.1-1.6,4.8-2.1 c0.4-0.2,0.8-0.3,1.2-0.4c1.2-0.4,2.4-0.7,3.7-0.8c0.3,0,0.7-0.1,1-0.1c-0.4,0.2-0.7,0.4-1,0.6C25.8,15.1,24.6,15.9,23.4,16.9z M25.8,23.2c0.4-1,0.8-2,1.3-3c0.9-2,2-3.9,3.3-5.7v9.4c-1.1,0-2.2-0.1-3.3-0.4C26.7,23.5,26.2,23.4,25.8,23.2z M38.5,12.2 c-0.5-0.9,0.5-1.5,1.2-1.1c-0.1-0.6,1-0.9,1.3-0.2c0.2-0.3,0.4-0.4,0.6-0.5c0.4-0.1,0.9,0.1,1,0.7c0.4-0.9,1.7-0.3,1.4,0.5 c1.1,0.1,1.2,1.5-0.1,1.6c0.3,0.8-0.8,1.1-1.4,0.5c-0.1,0.5-0.5,0.8-0.9,0.7c-0.2-0.1-0.5-0.2-0.7-0.7c-0.7,0.5-1.2,0.4-1.4-0.3 C38.7,13.7,38.1,13,38.5,12.2z M43.9,7c0.4,1-0.4,2-1.4,1.6c0,0.7-0.2,1.1-0.8,1.1c-0.2,0-0.5-0.1-0.8-0.2c0,0.9-1.4,1.1-1.6,0.4 c-1.2,1-2.5,2.6-3.3,4.6c-0.9,2.4-1.3,5.3,0,8.7c0,0,0,0,0,0.1c-1.4,0.4-2.8,0.5-4.3,0.6c-0.7-4.9,1.1-9,4.3-12.3 c0.8-0.8,1.7-1.5,2.7-2.3C38,9,38,7.6,39,7.5c-0.4-0.9,0.4-2,1.3-1.5c-0.4-1,0.1-1.8,1.4-1.2c0,0,0-0.1,0-0.1c0-0.1,0-0.1,0-0.2 c0.1-0.7,0.9-1.2,1.8-0.5c0.8-1.2,2.6,0.5,1,1.4C45.7,6,45,7.4,43.9,7z M37.4,7.5C38.1,7.9,38,8.8,37.4,9c0.4,0.9-0.3,1.7-1.2,1.4 c-0.1,0.1-0.1,0.1-0.2,0.2c-0.5,0.2-1.1-0.5-0.7-1.3c-0.5,0.3-1.2-0.8-0.6-1.4c-0.7-0.1-0.8-1.1-0.2-1.5C33.8,6.2,33.9,5,34.8,5 c-0.2-1.1,0.7-1.4,1.1-0.9c0.2,0.2,0.3,0.4,0.4,0.7c0.5-0.5,1.5,0.5,0.9,1.2C38,5.9,38.2,7.3,37.4,7.5z M28.6,14.7L28.6,14.7 C28.6,14.8,28.6,14.8,28.6,14.7c-0.6,0.9-1.1,1.7-1.5,2.4c-0.9,1.8-1.6,3.4-2.5,5.7c-0.4-0.1-0.8-0.2-1.2-0.4 c-0.4-0.2-0.8-0.3-1.2-0.5c-0.5-0.2-0.9-0.5-1.4-0.8c0.5-0.5,0.9-1.1,1.4-1.5c0.4-0.4,0.8-0.8,1.2-1.1c1.1-1.1,2.4-2,3.7-2.9 C27.6,15.4,28.1,15.1,28.6,14.7C28.6,14.8,28.6,14.8,28.6,14.7z"></path> <path class="st8" d="M43.2,61.3c0.4-0.5,0.8-1,1.1-1.5c1.6-2.3,2.8-4.7,3.8-7.3c0.2,0.1,0.4,0.2,0.5,0.4c0.9,0.6,1.8,1.2,2.6,1.9 c0.9,0.8,1.8,1.5,2.7,2.4c-0.8,1.1-1.7,2.3-2.7,3.3c-0.8,0.8-1.7,1.7-2.6,2.4c-0.7,0.5-1.3,1-2,1.5c-0.7-0.8-1.5-1.5-2.3-2.1 C43.9,61.9,43.6,61.6,43.2,61.3 M48.6,51.2C48.6,51.2,48.6,51.2,48.6,51.2c-0.1-0.1,0-0.2,0-0.2c0.9-2.8,1.4-5.8,1.4-8.9h1.2h7.6 c-0.1,5.1-1.7,9.8-4.2,13.9c-1.1-1.1-2.2-2-3.4-3C50.4,52.3,49.5,51.7,48.6,51.2z M37.6,59.9c0.1,0.1,0.2,0.1,0.3,0.1 c0.2,0.1,0.5,0.2,0.7,0.3c0.4,0.2,0.7,0.3,1,0.5c0.6,0.2,1.1,0.5,1.6,0.8l-1.6,1.4l-1,0.8l-0.7,0.6l-2.4,2.1L33.6,68 c0.7-1.1,1.3-2.3,1.9-3.4C36.2,63,37,61.5,37.6,59.9z M42.1,60.6c-0.8-0.5-1.6-0.9-2.5-1.3c-0.3-0.2-0.7-0.4-1-0.5 c-0.2-0.1-0.4-0.1-0.6-0.2c0.2-0.5,0.4-1.1,0.6-1.7c0.4-1.2,0.7-2.5,1-3.8c0.4-1.4,0.6-2.8,0.8-4.1c1.4,0.4,2.7,0.9,3.9,1.5 c0.9,0.4,1.8,0.9,2.7,1.4c-0.7,2-1.5,3.9-2.7,5.6C43.6,58.5,42.9,59.6,42.1,60.6z M48.6,44.6c-0.2,2-0.6,4-1.2,5.9 c-1-0.6-2-1.1-3.1-1.5c-1.2-0.5-2.4-1-3.7-1.4c0.2-1.8,0.4-3.7,0.4-5.5h3.4h4.3h0.1C48.7,42.9,48.7,43.7,48.6,44.6z M35.5,59.3 c0.4,0.1,0.6,0.1,0.9,0.2c-0.3,0.7-0.6,1.4-0.9,2.1c-1.1,2.4-2.4,4.7-3.8,6.9v-9.8C33,58.8,34.3,59,35.5,59.3z M36.8,58.3 c-0.4-0.1-0.9-0.2-1.4-0.4c-1.2-0.2-2.5-0.4-3.8-0.5v-9.9c1.3,0.1,2.5,0.1,3.8,0.3c0.8,0.1,1.7,0.3,2.4,0.5 c0.2,0.1,0.5,0.1,0.7,0.1c0.2,0.1,0.4,0.1,0.6,0.2c-0.2,1.1-0.4,2.3-0.6,3.4c-0.2,0.9-0.4,1.9-0.7,2.8C37.6,56,37.2,57.1,36.8,58.3 z M31.7,42.1h3.7h2.4h0.7h1h0.1c0,0.6,0,1.1-0.1,1.7c-0.1,1.2-0.1,2.3-0.2,3.4c-0.2-0.1-0.5-0.1-0.8-0.2c-0.2-0.1-0.5-0.1-0.7-0.1 c-0.8-0.2-1.6-0.4-2.4-0.5c-1.2-0.1-2.5-0.2-3.8-0.3L31.7,42.1z M25.6,59.4c0.5-0.1,1-0.2,1.5-0.4c1.1-0.2,2.1-0.3,3.3-0.4v9.9 c-1.2-1.8-2.3-3.8-3.3-5.7C26.6,61.7,26.1,60.6,25.6,59.4z M25.2,58.1c-0.7-2-1.3-4.1-1.7-6.3c-0.2-1.1-0.5-2.1-0.6-3.3 c0.2-0.1,0.4-0.1,0.6-0.1c1.2-0.4,2.4-0.5,3.7-0.7c1.1-0.1,2.1-0.2,3.3-0.2v9.9c-1.1,0-2.2,0.1-3.3,0.3 C26.5,57.8,25.8,58,25.2,58.1z M23.4,47.1c-0.3,0.1-0.5,0.1-0.8,0.2c-0.2-1.7-0.3-3.4-0.4-5.2h1.1h3.7h3.2l0.1,4.1 c-1.1,0.1-2.2,0.1-3.3,0.2C25.9,46.6,24.6,46.8,23.4,47.1z M23.4,64.4c-0.4-0.4-0.8-0.7-1.2-1.1c-0.6-0.6-1.1-1.2-1.7-1.8 c0.6-0.3,1.1-0.7,1.7-0.9c0.4-0.2,0.8-0.4,1.2-0.5c0.3-0.1,0.7-0.2,1-0.4l2.7,5.4l1.5,3v0.1c-0.5-0.4-1-0.7-1.5-0.9 C25.8,66.4,24.6,65.4,23.4,64.4z M24,58.5c-0.2,0.1-0.4,0.1-0.5,0.2c-0.4,0.2-0.8,0.3-1.2,0.5c-0.9,0.4-1.7,0.8-2.5,1.3 c-0.8-1-1.6-2.1-2.3-3.3c-1-1.7-1.8-3.4-2.5-5.3c0.8-0.5,1.6-0.9,2.5-1.3c1.4-0.7,2.7-1.2,4.1-1.6c0.2,1.2,0.4,2.4,0.7,3.5 c0.4,1.5,0.7,2.9,1.2,4.3C23.6,57.3,23.8,57.9,24,58.5z M13.2,44.3c-0.1-0.8-0.1-1.5-0.1-2.2h0.1h4.2h3.6c0.1,1.8,0.2,3.7,0.4,5.5 c-1.4,0.4-2.7,0.9-4,1.5c-1,0.5-2,0.9-3,1.5C13.9,48.5,13.4,46.4,13.2,44.3z M19.5,62.2c0.9,1,1.8,2,2.8,2.9c0.4,0.4,0.8,0.7,1.2,1 c1.1,1,2.4,1.9,3.7,2.7c0.1,0.1,0.1,0.1,0.1,0.1c0,0-0.1,0-0.1-0.1c-1.2-0.1-2.5-0.4-3.7-0.8c-0.4-0.1-0.8-0.2-1.2-0.4 c-1.7-0.5-3.3-1.2-4.8-2.1c-0.4-0.2-0.8-0.5-1.2-0.7c0.4-0.4,0.8-0.8,1.2-1.1C18.1,63.2,18.8,62.6,19.5,62.2z M13.2,52.9 c0.2-0.1,0.4-0.2,0.6-0.4c0.9,2.5,2.1,4.9,3.6,7.1c0.4,0.5,0.8,1.1,1.2,1.6c-0.4,0.2-0.8,0.5-1.2,0.8c-0.8,0.7-1.6,1.4-2.3,2.1 c-0.7-0.5-1.2-0.9-1.9-1.5c-0.9-0.7-1.7-1.5-2.5-2.3c-0.9-1-1.8-2.1-2.6-3.2c0.8-0.8,1.7-1.7,2.6-2.4 C11.6,54.1,12.4,53.5,13.2,52.9z M11.9,42.1c0,3,0.5,6,1.4,8.8c0.1,0.1,0.1,0.2,0.1,0.4c-0.1,0.1-0.1,0.1-0.1,0.1 c-0.8,0.5-1.7,1.1-2.5,1.7c-1.2,0.9-2.3,1.9-3.3,2.9c-2.5-4-4.1-8.8-4.2-13.9h7.5H11.9z M37.9,66.6c0.2-0.2,0.5-0.4,0.7-0.6 c0.4-0.2,0.7-0.6,1-0.9c0.9-0.8,1.9-1.8,2.7-2.8c0.7,0.5,1.4,1,2,1.6c0.4,0.4,0.8,0.7,1.2,1.1c-0.4,0.2-0.8,0.5-1.2,0.7 c-1.5,0.8-3,1.5-4.7,2c-0.3,0.1-0.7,0.2-1,0.3c-0.2,0.1-0.5,0.2-0.7,0.2c-0.8,0.2-1.6,0.4-2.4,0.5c-0.3,0.1-0.6,0.1-0.9,0.1 c0.3-0.2,0.6-0.4,0.9-0.5C36.3,67.7,37.1,67.2,37.9,66.6z"></path> <path class="st8" d="M48.6,29.9c-0.2,0.2-0.4,0.3-0.6,0.4c-0.9-2.5-2.2-4.9-3.7-7c-0.4-0.7-0.8-1.2-1.3-1.8c0.5-0.4,0.9-0.7,1.3-1 c0.8-0.7,1.7-1.4,2.4-2.2c0.7,0.5,1.3,0.9,2,1.5c0.9,0.8,1.8,1.5,2.6,2.4c0.9,1,1.8,2.1,2.7,3.3c-0.8,0.9-1.7,1.7-2.7,2.4 C50.4,28.7,49.5,29.3,48.6,29.9 M50,40.7c-0.1-3-0.6-5.9-1.4-8.7c-0.1-0.1-0.1-0.3-0.2-0.4c0.1-0.1,0.1-0.1,0.2-0.1 c0.9-0.5,1.8-1.1,2.6-1.8c1.2-0.9,2.4-2,3.4-3c2.5,4.1,4,8.9,4.1,14h-7.6H50z M31.7,36.5c1.3-0.1,2.5-0.1,3.8-0.3 c0.8-0.1,1.7-0.3,2.4-0.4c0.2-0.1,0.5-0.1,0.7-0.2c0.2-0.1,0.4-0.1,0.7-0.2c0.2,1.4,0.3,2.8,0.4,4.2c0.1,0.4,0.1,0.7,0.1,1.1h-0.1 h-1h-0.7h-2.4h-3.8V36.5z M13.2,38.8c0.2-2.3,0.7-4.5,1.4-6.6c0.9,0.5,1.8,1,2.8,1.4c1.3,0.6,2.7,1.1,4,1.5 c-0.2,1.9-0.4,3.7-0.4,5.6h-3.6h-4.2h-0.1C13.2,40.1,13.2,39.4,13.2,38.8z M13.2,31.4c0.1,0.1,0.2,0.1,0.2,0.1 c-0.1,0.2-0.2,0.5-0.2,0.7c-0.8,2.7-1.3,5.6-1.4,8.6h-1.1H3.2c0.1-5.1,1.6-10,4.1-14c1.1,1.1,2.2,2.1,3.4,3 C11.6,30.3,12.4,30.8,13.2,31.4z M48.6,38.4c0.1,0.8,0.1,1.5,0.1,2.3h-0.1h-4.3h-3.4c-0.1-1.9-0.2-3.7-0.4-5.6 c1.3-0.4,2.6-0.9,3.8-1.4c1.1-0.5,2.1-0.9,3-1.5C48,34.2,48.4,36.3,48.6,38.4z M18.9,21.5c-0.5,0.7-1,1.3-1.4,2 c-1.4,2.1-2.6,4.3-3.6,6.8c-0.2-0.2-0.4-0.3-0.7-0.5c-0.8-0.5-1.7-1.2-2.5-1.8c-0.9-0.7-1.8-1.5-2.6-2.4c0.8-1.1,1.7-2.3,2.6-3.3 c0.8-0.8,1.6-1.6,2.5-2.4c0.7-0.5,1.3-1,2-1.5c0.7,0.7,1.5,1.4,2.3,2C17.9,20.9,18.4,21.2,18.9,21.5z M17.5,32.1 c-0.8-0.4-1.6-0.8-2.4-1.2c0.7-1.8,1.5-3.4,2.4-5c0.8-1.2,1.6-2.5,2.5-3.6c0.7,0.4,1.5,0.8,2.3,1.2c0.4,0.2,0.8,0.3,1.2,0.4 c0.2,0.1,0.5,0.2,0.7,0.3c-0.2,0.7-0.5,1.5-0.7,2.2c-0.5,1.4-0.8,2.8-1.2,4.3c-0.2,1.1-0.4,2.1-0.6,3.2 C20.2,33.3,18.8,32.8,17.5,32.1z M38.6,31.5c0.2,0.9,0.4,1.8,0.5,2.7c-0.1,0-0.3,0.1-0.5,0.1c-0.2,0.1-0.5,0.1-0.7,0.2 c-0.8,0.1-1.6,0.3-2.4,0.4c-1.2,0.2-2.5,0.3-3.8,0.3v-10c1.3-0.1,2.6-0.2,3.8-0.5c0.4-0.1,0.7-0.2,1.1-0.3c0.5,1.4,1,2.8,1.4,4.2 C38.2,29.6,38.4,30.5,38.6,31.5z M40.3,33.8c-0.2-1.1-0.4-2.3-0.7-3.4c-0.3-1.3-0.6-2.5-1-3.8c-0.2-0.7-0.5-1.4-0.7-2.1 c-0.1-0.1-0.1-0.3-0.2-0.5c0.1,0,0.1,0,0.2,0c0.2-0.1,0.5-0.2,0.7-0.3c0.4-0.1,0.7-0.3,1-0.4c0.8-0.4,1.5-0.8,2.3-1.2 c0.8,1.1,1.7,2.3,2.4,3.4c1.1,1.7,1.9,3.5,2.6,5.3c-0.8,0.5-1.7,0.9-2.6,1.3C43.1,32.8,41.7,33.4,40.3,33.8z M23.4,34.3 c-0.2-0.1-0.4-0.1-0.5-0.2c0.1-0.9,0.3-2,0.5-2.9c0.5-2.3,1.1-4.5,1.9-6.7c0.6,0.2,1.2,0.3,1.8,0.4c1.1,0.2,2.1,0.3,3.3,0.3v10 c-1.1,0-2.2-0.1-3.3-0.2C25.9,34.8,24.6,34.6,23.4,34.3z M27.1,40.7h-3.7h-1.1c0.1-1.8,0.2-3.6,0.4-5.3c0.2,0.1,0.5,0.1,0.8,0.2 c1.2,0.3,2.4,0.5,3.7,0.7c1.1,0.1,2.1,0.2,3.3,0.2l-0.1,4.2H27.1z"></path> </g> </svg> 