<?xml version="1.0" encoding="UTF-8"?> <svg xmlns="http://www.w3.org/2000/svg" xmlns:xlink="http://www.w3.org/1999/xlink" version="1.1" id="Layer_1" x="0px" y="0px" viewBox="0 0 222.5 72.4" style="enable-background:new 0 0 222.5 72.4;" xml:space="preserve"> <style type="text/css"> .st0{fill-rule:evenodd;clip-rule:evenodd;fill:#0069A8;} .st1{fill:#0069A8;} .st2{fill-rule:evenodd;clip-rule:evenodd;fill:#33BEE5;} .st3{fill-rule:evenodd;clip-rule:evenodd;fill:#0B8CC8;} .st4{fill-rule:evenodd;clip-rule:evenodd;fill:#1E1917;} .st5{fill:#1E1917;} .st6{fill-rule:evenodd;clip-rule:evenodd;fill:#ACA9A9;} .st7{fill-rule:evenodd;clip-rule:evenodd;fill:#737070;} .st8{fill-rule:evenodd;clip-rule:evenodd;fill:#FFFFFF;} .st9{fill:#FFFFFF;} </style> <g> <path class="st0" d="M168.3,20.4c1.2,0.1,1.4,0.4,1.4,0.9v22.1c0,0.4-0.2,0.8-1.4,0.9v0.6h9.8v-0.6c-1.1-0.1-1.4-0.4-1.4-0.9V21.3 c0-0.4,0.3-0.8,1.4-0.9v-0.6h-9.8V20.4z"></path> <path class="st0" d="M202.8,26.6c0-1.1,0.8-2.3,4.9-2.6c4.4-0.2,7.7,1.1,8.6,1.8l0.8,0.6l1.9-6.3c-0.6,0-0.1-0.1-0.9-0.1 c-1.3,0-5.8-1.5-11.5-1.2c-7.1,0.4-10.3,4-10.3,8.8c0,9.2,17.2,4.9,17.1,9c-0.1,2.1-1.7,3.5-6.4,3.7c-4.9,0.2-7.9-1.2-8.9-2 c-0.5-0.3-1.4-0.9-1.3-1.1l-1,0.3l1.7,6.8c1.9,0.3,6.2,1.3,11.4,1c7-0.3,11.5-4.8,11.5-8.8C220.3,25.6,202.8,30.7,202.8,26.6"></path> <path class="st0" d="M142.5,20.4c0.6,0.1,1.2,0.3,1.2,0.9v17.1c-6.4-11.1-8.3-14.8-9.3-18v-0.6h-2h-9.5v0.6 c1.3,0.1,1.4,0.4,1.4,0.9v22.1c0,0.4-0.1,0.8-1.4,0.9v0.6h8.6v-0.6c-1.2-0.1-1.4-0.4-1.4-0.9V26c0.9,1.3,1.5,2.4,2.3,3.5 c5.9,9.4,7.6,12.8,8.3,14.8v0.6h9.4v-0.6c-0.3-0.1-0.3-0.4-0.3-0.9V21.3c0-0.4,0.2-0.8,1.4-0.9v-0.6h-8.7V20.4z"></path> <path class="st0" d="M96.1,20.4c1.2,0.1,1.6,0.4,1.6,0.9v13.9c0,3.7-1.6,5.1-5.4,5.1c-3.8,0-6-1.4-6-5.1V21.3 c0-0.4,0.7-0.8,1.8-0.9v-0.6h-9.7v0.6c1.1,0.1,1.3,0.4,1.3,0.9v12.8c0,8.3,5.3,11.1,12.5,11.1c7.3,0,12.3-2.7,12.3-11.1V21.3 c0-0.4,0.3-0.8,1.4-0.9v-0.6h-9.8V20.4z"></path> </g> <path class="st1" d="M218.2,56.6c0.5,0,0.9,0.2,1.1,0.3v2.8c-0.2,0.1-0.6,0.3-1.1,0.3c-1,0-1.2-0.8-1.2-1.7 C217,57.4,217.1,56.6,218.2,56.6 M217.9,55.6c-1.5,0-2,1-2,2.7c0,1.7,0.6,2.7,2,2.7c0.7,0,1.2-0.2,1.7-0.5l0.2,0.4h0.7v-7.7h-1.1V56 C218.9,55.8,218.4,55.6,217.9,55.6z M215.4,55.7c-0.1,0-0.3-0.1-0.5-0.1c-0.7,0-1.2,0.2-1.6,0.5l-0.2-0.4h-0.7v5.1h1.1v-3.9 c0.3-0.2,0.7-0.3,1.3-0.3c0.2,0,0.4,0,0.6,0.1V55.7z M210.2,58.4v1.3c-0.3,0.2-0.6,0.3-1.1,0.3c-0.6,0-0.8-0.4-0.8-0.8 c0-0.5,0.3-0.7,0.8-0.8L210.2,58.4z M210.2,57.3v0.3l-1.1,0.1c-1.2,0.1-1.9,0.6-1.9,1.7c0,0.8,0.4,1.6,1.8,1.6 c0.6,0,1.1-0.2,1.5-0.5l0.2,0.4h0.7v-3.4c0-1.1-0.4-1.8-2.1-1.8c-0.6,0-1.3,0.1-1.7,0.3v1c0.4-0.2,0.9-0.3,1.6-0.3 C210,56.6,210.2,56.8,210.2,57.3z M204.2,56.6c1,0,1.2,0.8,1.2,1.7c0,1-0.2,1.7-1.2,1.7c-0.5,0-0.9-0.2-1.1-0.3v-2.8 C203.3,56.8,203.7,56.6,204.2,56.6z M204.5,55.6c-0.5,0-1,0.2-1.4,0.4v-2.8h-1.1v7.7h0.7l0.2-0.4c0.4,0.3,1,0.5,1.7,0.5 c1.5,0,2-1,2-2.7C206.5,56.6,206,55.6,204.5,55.6z M200.9,60.9c0.1,0,0.2,0,0.2,0V60c-0.3,0-0.4-0.1-0.4-0.4v-6.4h-1.1v6.4 C199.5,60.5,199.9,60.9,200.9,60.9z M197.3,58.4v1.3c-0.3,0.2-0.6,0.3-1.1,0.3c-0.6,0-0.8-0.4-0.8-0.8c0-0.5,0.3-0.7,0.8-0.8 L197.3,58.4z M197.3,57.3v0.3l-1.1,0.1c-1.2,0.1-1.9,0.6-1.9,1.7c0,0.8,0.4,1.6,1.8,1.6c0.6,0,1.1-0.2,1.5-0.5l0.2,0.4h0.7v-3.4 c0-1.1-0.4-1.8-2.1-1.8c-0.6,0-1.3,0.1-1.7,0.3v1c0.4-0.2,0.9-0.3,1.6-0.3C197,56.6,197.3,56.8,197.3,57.3z M189.2,55.8l2,5.2h0.9 l2-5.2h-1.2l-1.2,3.7l-1.2-3.7H189.2z M186.2,56.4c-1-0.1-1.5-0.3-1.5-1.1c0-0.7,0.4-1.1,1.6-1.1c0.8,0,1.5,0.2,2,0.4v-1.1 c-0.4-0.2-1.1-0.4-2.1-0.4c-2.1,0-2.7,1.1-2.7,2.2c0,1.4,0.7,1.9,2.6,2.1c1,0.1,1.4,0.3,1.4,1.2c0,0.7-0.4,1.3-1.8,1.3 c-1,0-1.8-0.3-2.2-0.5v1.1c0.5,0.3,1.5,0.4,2.3,0.4c2.1,0,2.9-1,2.9-2.4C188.8,57,187.8,56.6,186.2,56.4z M180.8,60.9v-3.6 c0-1-0.5-1.6-1.8-1.6c-0.6,0-1.1,0.2-1.7,0.5l-0.2-0.4h-0.7v5.1h1.1v-4c0.3-0.2,0.6-0.3,1.2-0.3c0.5,0,0.8,0.2,0.8,0.8v3.5H180.8z M173.9,54.2c0,0.4,0.3,0.7,0.7,0.7s0.7-0.3,0.7-0.7c0-0.4-0.3-0.7-0.7-0.7S173.9,53.8,173.9,54.2z M175.4,60.9c0.1,0,0.2,0,0.2,0 V60c-0.3,0-0.4-0.1-0.4-0.4v-3.8h-1.1v3.9C174.1,60.5,174.5,60.9,175.4,60.9z M169,56.6c0.9,0,0.9,0.6,0.9,1.3h-2 C168,57.2,168.2,56.6,169,56.6z M166.8,58.3c0,1.7,0.6,2.7,2.3,2.7c0.6,0,1.2-0.1,1.8-0.3v-1c-0.4,0.2-1,0.3-1.6,0.3 c-1,0-1.3-0.5-1.3-1.3h3.2c0-0.2,0-0.3,0-0.5c0-1.4-0.3-2.6-2.1-2.6C167.4,55.6,166.8,56.7,166.8,58.3z M166.3,55.7 c-0.1,0-0.3-0.1-0.5-0.1c-0.7,0-1.2,0.2-1.6,0.5l-0.2-0.4h-0.7v5.1h1.1v-3.9c0.3-0.2,0.7-0.3,1.3-0.3c0.2,0,0.4,0,0.6,0.1V55.7z M162.4,60c-0.1,0-0.3,0-0.4,0c-0.6,0-0.8-0.2-0.8-0.8v-2.5h1.4v-1h-1.4v-1.5l-1.1,0.3v1.2l-0.9,0.3v0.7h0.9v2.7 c0,1.1,0.7,1.6,1.8,1.6c0.2,0,0.5,0,0.6-0.1V60z M158.5,60.9v-3.6c0-1-0.5-1.6-1.8-1.6c-0.6,0-1.1,0.2-1.7,0.5l-0.2-0.4h-0.7v5.1 h1.1v-4c0.3-0.2,0.6-0.3,1.2-0.3c0.5,0,0.8,0.2,0.8,0.8v3.5H158.5z M151.3,56.6c0.9,0,0.9,0.6,0.9,1.3h-2 C150.2,57.2,150.4,56.6,151.3,56.6z M149,58.3c0,1.7,0.6,2.7,2.3,2.7c0.6,0,1.2-0.1,1.8-0.3v-1c-0.4,0.2-1,0.3-1.6,0.3 c-1,0-1.3-0.5-1.3-1.3h3.2c0-0.2,0-0.3,0-0.5c0-1.4-0.3-2.6-2.1-2.6C149.6,55.6,149,56.7,149,58.3z M143.2,57c0,2.5,0.9,4,3.2,4 c0.9,0,1.4-0.2,1.8-0.3v-1.1c-0.6,0.2-1,0.3-1.7,0.3c-1.5,0-2.1-1-2.1-2.9c0-1.9,0.6-2.9,2.1-2.9c0.7,0,1.1,0.1,1.7,0.3v-1.1 c-0.4-0.2-0.9-0.3-1.8-0.3C144.1,53.1,143.2,54.5,143.2,57z M135.9,55.8l1.9,4.9l-1.3,2.7h1.3l2.9-7.7h-1.3l-1.2,3.6l-1.2-3.6H135.9 z M135.4,60c-0.1,0-0.3,0-0.4,0c-0.6,0-0.8-0.2-0.8-0.8v-2.5h1.4v-1h-1.4v-1.5l-1.1,0.3v1.2l-0.9,0.3v0.7h0.9v2.7 c0,1.1,0.7,1.6,1.8,1.6c0.2,0,0.5,0,0.6-0.1V60z M129.9,54.2c0,0.4,0.3,0.7,0.7,0.7c0.4,0,0.7-0.3,0.7-0.7c0-0.4-0.3-0.7-0.7-0.7 C130.3,53.5,129.9,53.8,129.9,54.2z M131.4,60.9c0.1,0,0.2,0,0.2,0V60c-0.3,0-0.4-0.1-0.4-0.4v-3.8h-1.1v3.9 C130.1,60.5,130.5,60.9,131.4,60.9z M126.3,57.2c0-0.5,0.4-0.6,1-0.6c0.6,0,1.1,0.1,1.6,0.3v-1c-0.4-0.2-0.9-0.3-1.6-0.3 c-1.5,0-2.1,0.7-2.1,1.6c0,0.9,0.4,1.4,1.9,1.5c0.7,0.1,0.8,0.3,0.8,0.6c0,0.4-0.4,0.6-1.2,0.6c-0.6,0-1.2-0.2-1.5-0.3v1 c0.3,0.1,1,0.3,1.7,0.3c1.6,0,2.2-0.8,2.2-1.6c0-1-0.4-1.4-1.9-1.5C126.5,57.7,126.3,57.6,126.3,57.2z M124.7,55.7 c-0.1,0-0.3-0.1-0.5-0.1c-0.7,0-1.2,0.2-1.6,0.5l-0.2-0.4h-0.7v5.1h1.1v-3.9c0.3-0.2,0.7-0.3,1.3-0.3c0.2,0,0.4,0,0.6,0.1V55.7z M118.7,56.6c0.9,0,0.9,0.6,0.9,1.3h-2C117.6,57.2,117.9,56.6,118.7,56.6z M116.4,58.3c0,1.7,0.6,2.7,2.3,2.7c0.6,0,1.2-0.1,1.8-0.3 v-1c-0.4,0.2-1,0.3-1.6,0.3c-1,0-1.3-0.5-1.3-1.3h3.2c0-0.2,0-0.3,0-0.5c0-1.4-0.3-2.6-2.1-2.6C117.1,55.6,116.4,56.7,116.4,58.3z M111.4,55.8l2,5.2h0.9l2-5.2H115l-1.2,3.7l-1.2-3.7H111.4z M109.2,54.2c0,0.4,0.3,0.7,0.7,0.7c0.4,0,0.7-0.3,0.7-0.7 c0-0.4-0.3-0.7-0.7-0.7C109.5,53.5,109.2,53.8,109.2,54.2z M110.7,60.9c0.1,0,0.2,0,0.2,0V60c-0.3,0-0.4-0.1-0.4-0.4v-3.8h-1.1v3.9 C109.4,60.5,109.8,60.9,110.7,60.9z M108.3,60.9v-3.6c0-1-0.5-1.6-1.8-1.6c-0.6,0-1.1,0.2-1.7,0.5l-0.2-0.4H104v5.1h1.1v-4 c0.3-0.2,0.6-0.3,1.2-0.3c0.5,0,0.8,0.2,0.8,0.8v3.5H108.3z M100.2,61c1,0,2.8-0.4,2.8-2.5v-5.3h-1.1v5.1c0,1.4-1,1.6-1.6,1.6 c-0.6,0-1.6-0.2-1.6-1.6v-5.1h-1.1v5.3C97.4,60.6,99.2,61,100.2,61z M92.5,56.6c0.9,0,0.9,0.6,0.9,1.3h-2 C91.4,57.2,91.7,56.6,92.5,56.6z M90.2,58.3c0,1.7,0.6,2.7,2.3,2.7c0.6,0,1.2-0.1,1.8-0.3v-1c-0.5,0.2-1,0.3-1.6,0.3 c-1,0-1.3-0.5-1.3-1.3h3.2c0-0.2,0-0.3,0-0.5c0-1.4-0.3-2.6-2.1-2.6C90.8,55.6,90.2,56.7,90.2,58.3z M88.2,57.4v3.5h1.1v-3.6 c0-1-0.5-1.6-1.8-1.6c-0.5,0-1,0.1-1.4,0.4v-2.8h-1.1v7.7h1.1v-4c0.3-0.2,0.6-0.3,1.2-0.3C88,56.6,88.2,56.8,88.2,57.4z M84.4,54.3 v-1.1h-5.1v1.1h2v6.6h1.1v-6.6H84.4z"></path> <path class="st2" d="M43.3,20.3c-0.8-0.9-1.7-1.8-2.5-2.6c-0.3-0.3-0.7-0.6-1-0.9c-0.2-0.2-0.5-0.4-0.7-0.5 c-0.3-0.3-0.7-0.5-0.9-0.8l0.8-1.4c0.1,0,0.1,0,0.1,0c0.2,0.1,0.5,0.1,0.7,0.2c0.4,0.1,0.7,0.2,1,0.4c1.7,0.5,3.2,1.2,4.7,2 c0.5,0.2,0.8,0.5,1.2,0.7c-0.4,0.4-0.8,0.8-1.2,1.2C44.8,19.1,44.1,19.7,43.3,20.3 M39.7,18.5c0.4,0.3,0.7,0.6,1,0.9 c0.5,0.5,1,1,1.4,1.5c-0.4,0.3-0.9,0.5-1.4,0.8c-0.3,0.2-0.7,0.3-1,0.5c-0.2,0.1-0.5,0.2-0.7,0.2c-0.2,0.1-0.4,0.2-0.7,0.2 c-0.7-2.9-0.6-4.4-0.5-5.7c0.4,0.3,0.8,0.7,1.2,0.9C39.3,18.1,39.5,18.3,39.7,18.5z M24.6,16.7c-0.4,0.4-0.8,0.7-1.2,1 c-0.9,0.8-1.7,1.7-2.5,2.6c-0.8-0.5-1.5-1.1-2.3-1.7c-0.4-0.4-0.8-0.7-1.1-1.1c0.4-0.2,0.7-0.5,1.1-0.7c1.5-0.9,3.1-1.6,4.8-2.1 c0.4-0.2,0.8-0.3,1.2-0.4c1.2-0.4,2.4-0.7,3.7-0.8c0.3,0,0.7-0.1,1-0.1c-0.4,0.2-0.7,0.4-1,0.6C26.9,14.8,25.7,15.7,24.6,16.7z M26.9,23c0.4-1,0.8-2,1.3-3c0.9-2,2-3.9,3.3-5.7v9.4c-1.1,0-2.2-0.1-3.3-0.4C27.8,23.2,27.3,23.1,26.9,23z M39.6,12 c-0.5-0.9,0.5-1.5,1.2-1.1c-0.1-0.6,1-0.9,1.3-0.2c0.2-0.3,0.4-0.4,0.6-0.5c0.4-0.1,0.9,0.1,1,0.7c0.4-0.9,1.7-0.3,1.4,0.5 c1.1,0.1,1.2,1.5-0.1,1.6c0.3,0.8-0.8,1.1-1.4,0.5c-0.1,0.5-0.5,0.8-0.9,0.7c-0.2-0.1-0.5-0.2-0.7-0.7c-0.7,0.5-1.2,0.4-1.4-0.3 C39.9,13.5,39.3,12.7,39.6,12z M45,6.8c0.4,1-0.4,2-1.4,1.6c0,0.7-0.2,1.1-0.8,1.1c-0.2,0-0.5-0.1-0.8-0.2c0,0.9-1.4,1.1-1.6,0.4 c-1.2,1-2.5,2.6-3.3,4.6c-0.9,2.4-1.3,5.3,0,8.7c0,0,0,0,0,0.1c-1.4,0.4-2.8,0.5-4.3,0.6c-0.7-4.9,1.1-9,4.3-12.3 c0.8-0.8,1.7-1.5,2.7-2.3c-0.7-0.4-0.6-1.7,0.4-1.8c-0.4-0.9,0.4-2,1.3-1.5c-0.4-1,0.1-1.8,1.4-1.2c0,0,0-0.1,0-0.1 c0-0.1,0-0.1,0-0.2c0.1-0.7,0.9-1.2,1.8-0.5c0.8-1.2,2.6,0.5,1,1.4C46.8,5.8,46.1,7.2,45,6.8z M38.6,7.3c0.7,0.4,0.6,1.2-0.1,1.4 c0.4,0.9-0.3,1.7-1.2,1.4c-0.1,0.1-0.1,0.1-0.2,0.2C36.6,10.4,36,9.8,36.4,9c-0.5,0.3-1.2-0.8-0.6-1.4c-0.7-0.1-0.8-1.1-0.2-1.5 c-0.6-0.2-0.5-1.4,0.4-1.4c-0.2-1.1,0.7-1.4,1.1-0.9c0.2,0.2,0.3,0.4,0.4,0.7C37.9,4,39,5,38.3,5.7C39.1,5.6,39.3,7.1,38.6,7.3z M29.7,14.5L29.7,14.5C29.7,14.5,29.7,14.5,29.7,14.5c-0.6,0.9-1.1,1.7-1.5,2.4c-0.9,1.8-1.6,3.4-2.5,5.7c-0.4-0.1-0.8-0.2-1.2-0.4 c-0.4-0.2-0.8-0.3-1.2-0.5c-0.5-0.2-0.9-0.5-1.4-0.8c0.5-0.5,0.9-1.1,1.4-1.5c0.4-0.4,0.8-0.8,1.2-1.1c1.1-1.1,2.4-2,3.7-2.9 C28.7,15.1,29.2,14.8,29.7,14.5C29.7,14.5,29.7,14.5,29.7,14.5z"></path> <path class="st0" d="M44.3,61c0.4-0.5,0.8-1,1.1-1.5c1.6-2.3,2.8-4.7,3.8-7.3c0.2,0.1,0.4,0.2,0.5,0.4c0.9,0.6,1.8,1.2,2.6,1.9 c0.9,0.8,1.8,1.5,2.7,2.4c-0.8,1.1-1.7,2.3-2.7,3.3c-0.8,0.8-1.7,1.7-2.6,2.4c-0.7,0.5-1.3,1-2,1.5c-0.7-0.8-1.5-1.5-2.3-2.1 C45.1,61.6,44.7,61.3,44.3,61 M49.8,51C49.8,51,49.7,51,49.8,51c-0.1-0.1,0-0.2,0-0.2c0.9-2.8,1.4-5.8,1.4-8.9h1.2h7.6 c-0.1,5.1-1.7,9.8-4.2,13.9c-1.1-1.1-2.2-2-3.4-3C51.5,52.1,50.6,51.5,49.8,51z M38.7,59.6c0.1,0.1,0.2,0.1,0.3,0.1 c0.2,0.1,0.5,0.2,0.7,0.3c0.4,0.2,0.7,0.3,1,0.5c0.6,0.2,1.1,0.5,1.6,0.8l-1.6,1.4l-1,0.8L39,64.1l-2.4,2.1l-1.9,1.5 c0.7-1.1,1.3-2.3,1.9-3.4C37.4,62.8,38.1,61.2,38.7,59.6z M43.2,60.4c-0.8-0.5-1.6-0.9-2.5-1.3c-0.3-0.2-0.7-0.4-1-0.5 c-0.2-0.1-0.4-0.1-0.6-0.2c0.2-0.5,0.4-1.1,0.6-1.7c0.4-1.2,0.7-2.5,1-3.8c0.4-1.4,0.6-2.8,0.8-4.1c1.4,0.4,2.7,0.9,3.9,1.5 c0.9,0.4,1.8,0.9,2.7,1.4c-0.7,2-1.5,3.9-2.7,5.6C44.8,58.3,44,59.3,43.2,60.4z M49.8,44.4c-0.2,2-0.6,4-1.2,5.9 c-1-0.6-2-1.1-3.1-1.5c-1.2-0.5-2.4-1-3.7-1.4c0.2-1.8,0.4-3.7,0.4-5.5h3.4h4.3h0.1C49.9,42.7,49.8,43.5,49.8,44.4z M36.6,59 c0.4,0.1,0.6,0.1,0.9,0.2c-0.3,0.7-0.6,1.4-0.9,2.1c-1.1,2.4-2.4,4.7-3.8,6.9v-9.8C34.1,58.6,35.4,58.7,36.6,59z M38,58 c-0.4-0.1-0.9-0.2-1.4-0.4c-1.2-0.2-2.5-0.4-3.8-0.5v-9.9c1.3,0.1,2.5,0.1,3.8,0.3c0.8,0.1,1.7,0.3,2.4,0.5c0.2,0.1,0.5,0.1,0.7,0.1 c0.2,0.1,0.4,0.1,0.6,0.2c-0.2,1.1-0.4,2.3-0.6,3.4c-0.2,0.9-0.4,1.9-0.7,2.8C38.7,55.8,38.4,56.9,38,58z M32.9,41.8h3.7H39h0.7h1 h0.1c0,0.6,0,1.1-0.1,1.7c-0.1,1.2-0.1,2.3-0.2,3.4c-0.2-0.1-0.5-0.1-0.8-0.2c-0.2-0.1-0.5-0.1-0.7-0.1c-0.8-0.2-1.6-0.4-2.4-0.5 c-1.2-0.1-2.5-0.2-3.8-0.3L32.9,41.8z M26.8,59.2c0.5-0.1,1-0.2,1.5-0.4c1.1-0.2,2.1-0.3,3.3-0.4v9.9c-1.2-1.8-2.3-3.8-3.3-5.7 C27.7,61.5,27.2,60.3,26.8,59.2z M26.3,57.9c-0.7-2-1.3-4.1-1.7-6.3c-0.2-1.1-0.5-2.1-0.6-3.3c0.2-0.1,0.4-0.1,0.6-0.1 c1.2-0.4,2.4-0.5,3.7-0.7c1.1-0.1,2.1-0.2,3.3-0.2v9.9c-1.1,0-2.2,0.1-3.3,0.3C27.6,57.6,26.9,57.7,26.3,57.9z M24.6,46.8 c-0.3,0.1-0.5,0.1-0.8,0.2c-0.2-1.7-0.3-3.4-0.4-5.2h1.1h3.7h3.2l0.1,4.1c-1.1,0.1-2.2,0.1-3.3,0.2C27,46.4,25.7,46.5,24.6,46.8z M24.6,64.2c-0.4-0.4-0.8-0.7-1.2-1.1c-0.6-0.6-1.1-1.2-1.7-1.8c0.6-0.3,1.1-0.7,1.7-0.9c0.4-0.2,0.8-0.4,1.2-0.5 c0.3-0.1,0.7-0.2,1-0.4l2.7,5.4l1.5,3V68c-0.5-0.4-1-0.7-1.5-0.9C26.9,66.2,25.7,65.2,24.6,64.2z M25.1,58.3 c-0.2,0.1-0.4,0.1-0.5,0.2c-0.4,0.2-0.8,0.3-1.2,0.5c-0.9,0.4-1.7,0.8-2.5,1.3c-0.8-1-1.6-2.1-2.3-3.3c-1-1.7-1.8-3.4-2.5-5.3 c0.8-0.5,1.6-0.9,2.5-1.3c1.4-0.7,2.7-1.2,4.1-1.6c0.2,1.2,0.4,2.4,0.7,3.5c0.4,1.5,0.7,2.9,1.2,4.3C24.7,57.1,24.9,57.7,25.1,58.3z M14.4,44c-0.1-0.8-0.1-1.5-0.1-2.2h0.1h4.2h3.6c0.1,1.8,0.2,3.7,0.4,5.5c-1.4,0.4-2.7,0.9-4,1.5c-1,0.5-2,0.9-3,1.5 C15,48.3,14.5,46.2,14.4,44z M20.6,61.9c0.9,1,1.8,2,2.8,2.9c0.4,0.4,0.8,0.7,1.2,1c1.1,1,2.4,1.9,3.7,2.7c0.1,0.1,0.1,0.1,0.1,0.1 c0,0-0.1,0-0.1-0.1c-1.2-0.1-2.5-0.4-3.7-0.8c-0.4-0.1-0.8-0.2-1.2-0.4c-1.7-0.5-3.3-1.2-4.8-2.1c-0.4-0.2-0.8-0.5-1.2-0.7 c0.4-0.4,0.8-0.8,1.2-1.1C19.2,62.9,19.9,62.4,20.6,61.9z M14.4,52.7c0.2-0.1,0.4-0.2,0.6-0.4c0.9,2.5,2.1,4.9,3.6,7.1 c0.4,0.5,0.8,1.1,1.2,1.6c-0.4,0.2-0.8,0.5-1.2,0.8c-0.8,0.7-1.6,1.4-2.3,2.1c-0.7-0.5-1.2-0.9-1.9-1.5c-0.9-0.7-1.7-1.5-2.5-2.3 c-0.9-1-1.8-2.1-2.6-3.2c0.8-0.8,1.7-1.7,2.6-2.4C12.7,53.9,13.5,53.3,14.4,52.7z M13,41.8c0,3,0.5,6,1.4,8.8 c0.1,0.1,0.1,0.2,0.1,0.4c-0.1,0.1-0.1,0.1-0.1,0.1c-0.8,0.5-1.7,1.1-2.5,1.7c-1.2,0.9-2.3,1.9-3.3,2.9c-2.5-4-4.1-8.8-4.2-13.9h7.5 H13z M39,66.3c0.2-0.2,0.5-0.4,0.7-0.6c0.4-0.2,0.7-0.6,1-0.9c0.9-0.8,1.9-1.8,2.7-2.8c0.7,0.5,1.4,1,2,1.6c0.4,0.4,0.8,0.7,1.2,1.1 c-0.4,0.2-0.8,0.5-1.2,0.7c-1.5,0.8-3,1.5-4.7,2c-0.3,0.1-0.7,0.2-1,0.3C39.5,67.9,39.3,68,39,68c-0.8,0.2-1.6,0.4-2.4,0.5 c-0.3,0.1-0.6,0.1-0.9,0.1c0.3-0.2,0.6-0.4,0.9-0.5C37.4,67.5,38.3,66.9,39,66.3z"></path> <path class="st3" d="M49.8,29.6c-0.2,0.2-0.4,0.3-0.6,0.4c-0.9-2.5-2.2-4.9-3.7-7c-0.4-0.7-0.8-1.2-1.3-1.8c0.5-0.4,0.9-0.7,1.3-1 c0.8-0.7,1.7-1.4,2.4-2.2c0.7,0.5,1.3,0.9,2,1.5c0.9,0.8,1.8,1.5,2.6,2.4c0.9,1,1.8,2.1,2.7,3.3c-0.8,0.9-1.7,1.7-2.7,2.4 C51.5,28.5,50.6,29,49.8,29.6 M51.2,40.5c-0.1-3-0.6-5.9-1.4-8.7c-0.1-0.1-0.1-0.3-0.2-0.4c0.1-0.1,0.1-0.1,0.2-0.1 c0.9-0.5,1.8-1.1,2.6-1.8c1.2-0.9,2.4-2,3.4-3c2.5,4.1,4,8.9,4.1,14h-7.6H51.2z M32.8,36.3c1.3-0.1,2.5-0.1,3.8-0.3 c0.8-0.1,1.7-0.3,2.4-0.4c0.2-0.1,0.5-0.1,0.7-0.2c0.2-0.1,0.4-0.1,0.7-0.2c0.2,1.4,0.3,2.8,0.4,4.2c0.1,0.4,0.1,0.7,0.1,1.1h-0.1 h-1H39h-2.4h-3.8V36.3z M14.4,38.5c0.2-2.3,0.7-4.5,1.4-6.6c0.9,0.5,1.8,1,2.8,1.4c1.3,0.6,2.7,1.1,4,1.5c-0.2,1.9-0.4,3.7-0.4,5.6 h-3.6h-4.2h-0.1C14.3,39.8,14.3,39.2,14.4,38.5z M14.4,31.1c0.1,0.1,0.2,0.1,0.2,0.1c-0.1,0.2-0.2,0.5-0.2,0.7 c-0.8,2.7-1.3,5.6-1.4,8.6h-1.1H4.4c0.1-5.1,1.6-10,4.1-14c1.1,1.1,2.2,2.1,3.4,3C12.7,30.1,13.5,30.6,14.4,31.1z M49.8,38.2 c0.1,0.8,0.1,1.5,0.1,2.3h-0.1h-4.3H42c-0.1-1.9-0.2-3.7-0.4-5.6c1.3-0.4,2.6-0.9,3.8-1.4c1.1-0.5,2.1-0.9,3-1.5 C49.1,34,49.5,36,49.8,38.2z M20,21.3c-0.5,0.7-1,1.3-1.4,2C17.2,25.3,16,27.6,15,30c-0.2-0.2-0.4-0.3-0.7-0.5 c-0.8-0.5-1.7-1.2-2.5-1.8c-0.9-0.7-1.8-1.5-2.6-2.4c0.8-1.1,1.7-2.3,2.6-3.3c0.8-0.8,1.6-1.6,2.5-2.4c0.7-0.5,1.3-1,2-1.5 c0.7,0.7,1.5,1.4,2.3,2C19.1,20.6,19.5,20.9,20,21.3z M18.6,31.9c-0.8-0.4-1.6-0.8-2.4-1.2c0.7-1.8,1.5-3.4,2.4-5 c0.8-1.2,1.6-2.5,2.5-3.6c0.7,0.4,1.5,0.8,2.3,1.2c0.4,0.2,0.8,0.3,1.2,0.4c0.2,0.1,0.5,0.2,0.7,0.3c-0.2,0.7-0.5,1.5-0.7,2.2 c-0.5,1.4-0.8,2.8-1.2,4.3c-0.2,1.1-0.4,2.1-0.6,3.2C21.4,33.1,19.9,32.5,18.6,31.9z M39.7,31.2c0.2,0.9,0.4,1.8,0.5,2.7 c-0.1,0-0.3,0.1-0.5,0.1c-0.2,0.1-0.5,0.1-0.7,0.2c-0.8,0.1-1.6,0.3-2.4,0.4c-1.2,0.2-2.5,0.3-3.8,0.3V25c1.3-0.1,2.6-0.2,3.8-0.5 c0.4-0.1,0.7-0.2,1.1-0.3c0.5,1.4,1,2.8,1.4,4.2C39.3,29.3,39.6,30.3,39.7,31.2z M41.4,33.5c-0.2-1.1-0.4-2.3-0.7-3.4 c-0.3-1.3-0.6-2.5-1-3.8c-0.2-0.7-0.5-1.4-0.7-2.1c-0.1-0.1-0.1-0.3-0.2-0.5c0.1,0,0.1,0,0.2,0c0.2-0.1,0.5-0.2,0.7-0.3 c0.4-0.1,0.7-0.3,1-0.4c0.8-0.4,1.5-0.8,2.3-1.2c0.8,1.1,1.7,2.3,2.4,3.4c1.1,1.7,1.9,3.5,2.6,5.3c-0.8,0.5-1.7,0.9-2.6,1.3 C44.2,32.6,42.8,33.1,41.4,33.5z M24.6,34c-0.2-0.1-0.4-0.1-0.5-0.2c0.1-0.9,0.3-2,0.5-2.9c0.5-2.3,1.1-4.5,1.9-6.7 c0.6,0.2,1.2,0.3,1.8,0.4c1.1,0.2,2.1,0.3,3.3,0.3v10c-1.1,0-2.2-0.1-3.3-0.2C27,34.6,25.7,34.3,24.6,34z M28.2,40.5h-3.7h-1.1 c0.1-1.8,0.2-3.6,0.4-5.3c0.2,0.1,0.5,0.1,0.8,0.2c1.2,0.3,2.4,0.5,3.7,0.7c1.1,0.1,2.1,0.2,3.3,0.2l-0.1,4.2H28.2z"></path> </svg> 